# Blender v2.79 (sub 0) OBJ File: 'dirt-cube.blend'
# www.blender.org
mtllib dirt-cube.mtl
o dirt-block_dirt-block.001
v -0.806946 0.012690 -0.797206
v -0.806946 0.012690 0.802796
v -0.806946 1.612693 -0.797206
v -0.806946 1.612692 0.802796
v 0.793057 0.012690 -0.797206
v 0.793057 0.012690 0.802796
v 0.793057 1.612693 -0.797206
v 0.793057 1.612692 0.802796
vt 0.333333 0.333333
vt 0.000000 0.333333
vt 0.000000 0.000000
vt 0.333333 0.000000
vt 0.666667 0.333333
vt 0.666667 0.666667
vt 0.333333 0.666667
vt 0.333333 0.333333
vt 0.333333 0.666667
vt 0.000000 0.666667
vt 0.000000 0.333333
vt 0.333333 0.333333
vt 0.666667 0.333333
vt 0.333333 0.333333
vt 0.333333 0.000000
vt 0.666667 0.000000
vt 1.000000 0.000000
vt 1.000000 0.333333
vt 0.666667 0.000000
vt 0.333333 1.000000
vt 0.000000 1.000000
vt 0.000000 0.666667
vn -1.0000 0.0000 0.0000
vn 1.0000 0.0000 0.0000
vn 0.0000 -1.0000 -0.0000
vn 0.0000 1.0000 0.0000
vn 0.0000 0.0000 -1.0000
vn 0.0000 -0.0000 1.0000
usemtl palette
s off
f 1/1/1 2/2/1 4/3/1 3/4/1
f 7/5/2 8/6/2 6/7/2 5/8/2
f 1/9/3 5/10/3 6/11/3 2/12/3
f 4/13/4 8/14/4 7/15/4 3/16/4
f 1/17/5 3/18/5 7/5/5 5/19/5
f 6/7/6 8/20/6 4/21/6 2/22/6
